<mxfile host="app.diagrams.net" modified="2020-12-26T15:24:41.544Z" agent="5.0 (Windows NT 10.0; WOW64) AppleWebKit/537.36 (KHTML, like Gecko) Chrome/86.0.4240.193 Safari/537.36" etag="Qqa7mb5plsVQKqFviKOQ" version="14.0.5" type="github">
  <diagram id="pb_kn2ttg73mq48QflHl" name="第 1 页">
    <mxGraphModel dx="757" dy="681" grid="1" gridSize="10" guides="1" tooltips="1" connect="1" arrows="1" fold="1" page="1" pageScale="1" pageWidth="2336" pageHeight="1654" math="0" shadow="0">
      <root>
        <mxCell id="0" />
        <mxCell id="1" parent="0" />
        <mxCell id="CL3Yj9QpvklW1oUukG-D-3" style="edgeStyle=orthogonalEdgeStyle;rounded=0;orthogonalLoop=1;jettySize=auto;html=1;fontFamily=Helvetica;fontSize=12;" edge="1" parent="1" source="CL3Yj9QpvklW1oUukG-D-1" target="CL3Yj9QpvklW1oUukG-D-2">
          <mxGeometry relative="1" as="geometry" />
        </mxCell>
        <mxCell id="CL3Yj9QpvklW1oUukG-D-1" value="case&amp;nbsp;&lt;span style=&quot;color: rgba(0 , 0 , 0 , 0) ; font-family: monospace ; font-size: 0px&quot;&gt;%3CmxGraphModel%3E%3Croot%3E%3CmxCell%20id%3D%220%22%2F%3E%3CmxCell%20id%3D%221%22%20parent%3D%220%22%2F%3E%3CmxCell%20id%3D%222%22%20value%3D%22case%3A%20EXT_VAR_DEF%22%20style%3D%22whiteSpace%3Dwrap%3Bhtml%3D1%3B%22%20vertex%3D%221%22%20parent%3D%221%22%3E%3CmxGeometry%20x%3D%22260%22%20y%3D%22350%22%20width%3D%22120%22%20height%3D%2230%22%20as%3D%22geometry%22%2F%3E%3C%2FmxCell%3E%3C%2Froot%3E%3C%2FmxGraphModel%3E&lt;/span&gt;&lt;span style=&quot;color: rgba(0 , 0 , 0 , 0) ; font-family: monospace ; font-size: 0px&quot;&gt;%3CmxGraphModel%3E%3Croot%3E%3CmxCell%20id%3D%220%22%2F%3E%3CmxCell%20id%3D%221%22%20parent%3D%220%22%2F%3E%3CmxCell%20id%3D%222%22%20value%3D%22case%3A%20EXT_VAR_DEF%22%20style%3D%22whiteSpace%3Dwrap%3Bhtml%3D1%3B%22%20vertex%3D%221%22%20parent%3D%221%22%3E%3CmxGeometry%20x%3D%22260%22%20y%3D%22350%22%20width%3D%22120%22%20height%3D%2230%22%20as%3D%22geometry%22%2F%3E%3C%2FmxCell%3E%3C%2Froot%3E%3C%2FmxGraphModel%3E&lt;/span&gt;&lt;span lang=&quot;EN-US&quot; style=&quot;font-size: 10.5pt ; font-family: &amp;#34;times new roman&amp;#34; , serif&quot;&gt;EXT_VAR_DEF&lt;/span&gt;" style="rounded=0;whiteSpace=wrap;html=1;" vertex="1" parent="1">
          <mxGeometry x="270" y="150" width="150" height="30" as="geometry" />
        </mxCell>
        <mxCell id="CL3Yj9QpvklW1oUukG-D-5" style="edgeStyle=orthogonalEdgeStyle;rounded=0;orthogonalLoop=1;jettySize=auto;html=1;fontFamily=Helvetica;fontSize=12;" edge="1" parent="1" source="CL3Yj9QpvklW1oUukG-D-2" target="CL3Yj9QpvklW1oUukG-D-4">
          <mxGeometry relative="1" as="geometry" />
        </mxCell>
        <mxCell id="CL3Yj9QpvklW1oUukG-D-2" value="获取第一个子节点&lt;span lang=&quot;EN-US&quot; style=&quot;font-size: 12px;&quot;&gt;Specifier的类型&lt;/span&gt;&lt;br style=&quot;font-size: 12px;&quot;&gt;type=semantic_Analysis(T-&amp;gt;ptr[0],type,level,flag,command);" style="rounded=0;whiteSpace=wrap;html=1;fontSize=12;fontFamily=Helvetica;" vertex="1" parent="1">
          <mxGeometry x="177.5" y="200" width="335" height="40" as="geometry" />
        </mxCell>
        <mxCell id="CL3Yj9QpvklW1oUukG-D-4" value="&lt;div&gt;flag设置为V，并将type传给后续变量列表&lt;/div&gt;&lt;div&gt;flag=&#39;V&#39;;&lt;/div&gt;&lt;div&gt;&lt;span&gt;semantic_Analysis(T-&amp;gt;ptr[1],type,level,flag,command);&lt;/span&gt;&lt;/div&gt;" style="rounded=0;whiteSpace=wrap;html=1;fontFamily=Helvetica;fontSize=12;" vertex="1" parent="1">
          <mxGeometry x="190" y="260" width="310" height="50" as="geometry" />
        </mxCell>
      </root>
    </mxGraphModel>
  </diagram>
</mxfile>
